<svg width="21" height="22" viewBox="0 0 21 22" fill="none" xmlns="http://www.w3.org/2000/svg">
<path fill-rule="evenodd" clip-rule="evenodd" d="M10.4998 0.500488C4.7004 0.500488 -0.000244141 5.20113 -0.000244141 11.0005C-0.000244141 16.7998 4.7004 21.5005 10.4998 21.5005C16.2991 21.5005 20.9998 16.7998 20.9998 11.0005C20.9998 5.20113 16.2991 0.500488 10.4998 0.500488ZM10.3839 6.11582C9.89573 5.62766 9.10427 5.62766 8.61612 6.11582C8.12796 6.60397 8.12796 7.39543 8.61612 7.88358L11.7323 10.9998L8.61612 14.116C8.12796 14.6041 8.12796 15.3956 8.61612 15.8838C9.10427 16.3719 9.89573 16.3719 10.3839 15.8838L14.384 11.8837C14.8721 11.3955 14.8721 10.6041 14.384 10.1159L10.3839 6.11582Z" fill="black"/>
</svg>
