<svg width="32" height="32" viewBox="0 0 32 32" fill="none" xmlns="http://www.w3.org/2000/svg">
<rect width="32" height="32" rx="16" fill="#ECEFF3"/>
<path d="M20.3145 20.7917L23.5812 16.5167C23.6093 16.4828 23.6344 16.4465 23.6562 16.4083L23.7229 16.2583C23.8146 16.0196 23.8146 15.7554 23.7229 15.5167L23.6562 15.4C23.6363 15.3502 23.6111 15.3028 23.5812 15.2583L20.3145 10.9833C20.1389 10.7913 19.8978 10.6719 19.6386 10.6487C19.3795 10.6255 19.121 10.7001 18.9141 10.8579C18.7071 11.0157 18.5668 11.2452 18.5206 11.5013C18.4744 11.7574 18.5258 12.0215 18.6645 12.2417L20.4562 14.575C20.4773 14.5996 20.4908 14.6299 20.4949 14.6621C20.4991 14.6943 20.4938 14.727 20.4796 14.7562C20.4655 14.7854 20.4431 14.8098 20.4152 14.8265C20.3874 14.8431 20.3553 14.8513 20.3229 14.85L9.96452 14.85C9.68825 14.85 9.4233 14.9597 9.22795 15.1551C9.0326 15.3504 8.92285 15.6154 8.92285 15.8917C8.92285 16.1679 9.0326 16.4329 9.22795 16.6282C9.4233 16.8236 9.68825 16.9333 9.96452 16.9333L20.3062 16.9333C20.3471 16.9134 20.3942 16.9106 20.4372 16.9254C20.4801 16.9403 20.5155 16.9716 20.5354 17.0125C20.5552 17.0534 20.5581 17.1005 20.5432 17.1435C20.5284 17.1864 20.4971 17.2218 20.4562 17.2417L18.6812 19.5667C18.5972 19.6746 18.5354 19.7983 18.4995 19.9303C18.4637 20.0624 18.4544 20.2002 18.4722 20.3359C18.49 20.4716 18.5346 20.6023 18.6034 20.7206C18.6722 20.8389 18.7638 20.9424 18.8729 21.025C19.095 21.185 19.3717 21.2504 19.642 21.2066C19.9123 21.1629 20.1542 21.0136 20.3145 20.7917V20.7917Z" fill="black"/>
</svg>
