<svg width="20" height="20" viewBox="0 0 20 20" fill="none" xmlns="http://www.w3.org/2000/svg">
<path fill-rule="evenodd" clip-rule="evenodd" d="M10 0C4.47715 0 0 4.47715 0 10C0 15.5228 4.47715 20 10 20C15.5228 20 20 15.5228 20 10C20 4.47715 15.5228 0 10 0ZM13.4062 6.20117C13.726 6.19013 14.0504 6.29965 14.3027 6.53516C14.8075 7.00616 14.8343 7.798 14.3633 8.30273L9.69727 13.3027C9.46087 13.556 9.12971 13.6991 8.78321 13.6992C8.43681 13.6992 8.10751 13.5559 7.8711 13.3027L5.53711 10.8027C5.066 10.2981 5.09304 9.50821 5.59766 9.03711C6.10228 8.56591 6.89217 8.59306 7.36328 9.09766L8.78321 10.6172L12.5352 6.59766C12.7707 6.3453 13.0865 6.21222 13.4063 6.20117L13.4062 6.20117Z" fill="#6168DB"/>
</svg>
