<svg width="22" height="22" viewBox="0 0 22 22" fill="none" xmlns="http://www.w3.org/2000/svg">
<path d="M11 0.5C5.2 0.5 0.5 5.2 0.5 11C0.5 16.8 5.2 21.5 11 21.5C16.8 21.5 21.5 16.8 21.5 11C21.5 5.2 16.8 0.5 11 0.5ZM11 19C6.58 19 3 15.42 3 11C3 6.58 6.58 3 11 3C15.42 3 19 6.58 19 11C19 15.42 15.42 19 11 19Z" fill="#E6EBF1"/>
<path d="M13.5899 7.55005L9.8399 11.57L8.4199 10.0501C7.9499 9.55005 7.1599 9.52005 6.6499 9.99005C6.1499 10.46 6.1199 11.2501 6.5899 11.7601L8.9199 14.2601C9.1599 14.5101 9.4899 14.66 9.8299 14.66C10.1699 14.66 10.5099 14.5201 10.7399 14.2601L15.4099 9.26005C15.8799 8.76005 15.8499 7.96005 15.3499 7.49005C14.8499 7.02005 14.0499 7.05005 13.5799 7.55005H13.5899Z" fill="#E6EBF1"/>
</svg>
