<svg width="19" height="19" viewBox="0 0 19 19" fill="none" xmlns="http://www.w3.org/2000/svg">
<path fill-rule="evenodd" clip-rule="evenodd" d="M2.01002 18.1499C1.43002 18.1499 0.920019 17.7499 0.790019 17.1799L0.0700191 14.0599C-0.119981 13.2499 0.0700191 12.4099 0.580019 11.7599L7.28024 3.21692C7.29261 3.19936 7.3055 3.18202 7.3189 3.16492C7.33243 3.14765 7.34633 3.13084 7.36057 3.11448L8.87002 1.18989C10 -0.240105 11.94 -0.400106 13.49 0.819894L14.88 1.90989C16.43 3.12989 16.75 5.04989 15.63 6.48989L7.34002 17.0599C6.83002 17.7199 6.05002 18.0999 5.22002 18.1099L2.03002 18.1499H2.01002ZM8.51672 5.69217L2.55002 13.2999C2.51002 13.3499 2.49002 13.4299 2.51002 13.4999L3.00002 15.6399L5.19002 15.6099C5.26002 15.6099 5.33002 15.5799 5.37002 15.5199L11.3378 7.9036L8.51672 5.69217ZM12.8797 5.93574L10.0595 3.72502L10.84 2.72989C11.2 2.26989 11.74 2.61989 11.95 2.77989L13.34 3.86989C13.55 4.03989 14.02 4.48989 13.66 4.93989L12.8797 5.93574ZM9.44958 16.8982C9.44958 16.2078 10.0092 15.6482 10.6996 15.6482H17.0766C17.7669 15.6482 18.3266 16.2078 18.3266 16.8982C18.3266 17.5885 17.7669 18.1482 17.0766 18.1482H10.6996C10.0092 18.1482 9.44958 17.5885 9.44958 16.8982Z" fill="black"/>
</svg>
