<svg width="16" height="18" viewBox="0 0 16 18" fill="none" xmlns="http://www.w3.org/2000/svg">
<path fill-rule="evenodd" clip-rule="evenodd" d="M4.66667 0.458313C5.24197 0.458313 5.70834 0.924683 5.70834 1.49998V2.12498H10.2917V1.49998C10.2917 0.924683 10.758 0.458313 11.3333 0.458313C11.9086 0.458313 12.375 0.924683 12.375 1.49998V2.24975C14.2883 2.71707 15.7083 4.44269 15.7083 6.49998V7.12498V8.16665V13.1666C15.7083 15.5829 13.7496 17.5416 11.3333 17.5416H4.66667C2.25043 17.5416 0.291672 15.5829 0.291672 13.1666V8.16665V7.12498V6.49998C0.291672 4.44269 1.71167 2.71707 3.62501 2.24975V1.49998C3.62501 0.924683 4.09138 0.458313 4.66667 0.458313ZM2.37501 7.12498H13.625V6.49998C13.625 5.60942 13.117 4.83751 12.375 4.45819V4.83333C12.375 5.40863 11.9086 5.875 11.3333 5.875C10.758 5.875 10.2917 5.40863 10.2917 4.83333V4.20831H5.70834V4.83333C5.70834 5.40863 5.24197 5.875 4.66667 5.875C4.09138 5.875 3.62501 5.40863 3.62501 4.83333V4.45819C2.88299 4.83751 2.37501 5.60942 2.37501 6.49998V7.12498ZM8.01855 11.6823C7.64007 11.6989 7.3266 11.3999 7.31014 11.0168C7.30932 10.6336 7.60552 10.3163 7.98399 10.2996C8.35424 10.2988 8.65867 10.5903 8.66772 10.9651C8.68417 11.3483 8.3888 11.6648 8.01855 11.6823ZM10.7 11.0034V11.0126C10.7082 11.3957 11.0208 11.6864 11.4001 11.6781C11.7704 11.6689 12.0658 11.3516 12.0575 10.9685C12.0403 10.602 11.7432 10.303 11.3738 10.3038C10.9953 10.3121 10.6991 10.6203 10.7 11.0034ZM10.695 14.0361C10.6959 14.4192 11.0011 14.7349 11.3796 14.7432C11.7655 14.7424 12.0781 14.4251 12.0773 14.0336C12.0773 13.6421 11.7638 13.3264 11.3771 13.3264H11.3689C10.9904 13.3356 10.6868 13.6529 10.695 14.0361ZM7.31343 14.0403C7.33071 14.4234 7.64336 14.7224 8.02184 14.7058C8.39209 14.6883 8.68829 14.3718 8.67101 13.9878C8.66278 13.6138 8.35753 13.3223 7.98728 13.3231C7.60881 13.3406 7.31343 13.6571 7.31343 14.0403ZM4.62872 11.7114C4.25025 11.7289 3.93677 11.4291 3.92032 11.0459C3.91949 10.6628 4.21487 10.3454 4.59334 10.3288C4.96441 10.3279 5.26884 10.6195 5.27707 10.9943C5.29435 11.3774 4.99897 11.6948 4.62872 11.7114ZM3.92359 14.0444C3.94087 14.4275 4.25352 14.7274 4.632 14.7099C5.00307 14.6932 5.29844 14.3759 5.28116 13.9927C5.27294 13.6179 4.96769 13.3264 4.59744 13.3272C4.21896 13.3439 3.92277 13.6612 3.92359 14.0444ZM2.37501 13.1666V9.20831H13.625V13.1666C13.625 14.4323 12.599 15.4583 11.3333 15.4583H4.66667C3.40102 15.4583 2.37501 14.4323 2.37501 13.1666Z" fill="black"/>
</svg>
