<svg width="24" height="24" viewBox="0 0 24 24" fill="none" xmlns="http://www.w3.org/2000/svg">
<path fill-rule="evenodd" clip-rule="evenodd" d="M12.02 0.75C5.47686 0.75 0.75 6.09933 0.75 12.015C0.75 13.9162 1.29608 15.8313 2.22271 17.5547L2.22228 17.5562L1.55228 19.7995L1.54547 19.8231C1.35249 20.5189 1.541 21.2461 2.06534 21.7294C2.57258 22.1969 3.28266 22.3336 3.93302 22.1336L5.94586 21.5358C5.94955 21.5347 5.95322 21.5336 5.95689 21.5324C5.96338 21.5305 5.96985 21.5284 5.9763 21.5263L5.98289 21.5283C6.00927 21.5364 6.05633 21.5544 6.13443 21.5949C6.21412 21.6362 6.30565 21.6898 6.42849 21.7648L6.44542 21.775C8.11672 22.7598 10.16 23.25 12 23.25C17.5514 23.25 23.25 18.9495 23.25 11.985C23.25 5.99523 18.4196 0.75 12.02 0.75ZM3.25 12.015C3.25 7.3929 6.94314 3.25 12.02 3.25C16.9804 3.25 20.75 7.31674 20.75 11.985C20.75 17.3789 16.3686 20.75 12 20.75C10.5632 20.75 8.97028 20.3586 7.72279 19.6259L7.70986 19.618C7.2255 19.322 6.34526 18.784 5.21993 19.1434L4.27338 19.4246L4.61045 18.2959C4.8095 17.7048 4.79584 17.0044 4.4365 16.3929C3.66823 14.9717 3.25 13.4518 3.25 12.015ZM10.8067 9.77055L10.7977 9.87062C10.7525 10.2875 10.3641 10.6044 9.90335 10.6044C9.40651 10.6044 9 10.2292 9 9.77055C9 7.96111 10.8428 6.62696 12.785 7.09391C13.8149 7.33573 14.6369 8.10287 14.8989 9.04511C15.215 10.1708 14.7724 11.3048 13.8149 11.9719L13.6884 12.072C13.1915 12.4805 12.9025 13.0392 12.9025 13.6229C12.9025 14.0815 12.496 14.4568 11.9991 14.4568C11.5023 14.4568 11.0958 14.0815 11.0958 13.6229C11.0958 12.4555 11.701 11.3715 12.7218 10.6544C13.1102 10.3793 13.2819 9.92898 13.1554 9.46203C13.056 9.10348 12.7218 8.80329 12.3334 8.71157C11.5384 8.51979 10.8067 9.05345 10.8067 9.77055ZM13.0289 16.0495C13.0289 15.5241 12.5682 15.0989 11.9991 15.0989C11.43 15.0989 10.9693 15.5241 10.9693 16.0495C10.9693 16.5748 11.43 17 11.9991 17C12.5682 16.9917 13.0289 16.5748 13.0289 16.0495Z" fill="#6168DB"/>
</svg>
